<?xml version="1.0" encoding="utf-8"?>
<!-- Generator: Adobe Illustrator 22.1.0, SVG Export Plug-In . SVG Version: 6.00 Build 0)  -->
<svg version="1.1" id="Layer_1" xmlns="http://www.w3.org/2000/svg" xmlns:xlink="http://www.w3.org/1999/xlink" x="0px" y="0px"
	 viewBox="0 0 576 184.1" style="enable-background:new 0 0 576 184.1;" xml:space="preserve">
<style type="text/css">
	.st0{fill:#4598CC;}
	.st1{fill:#EE2737;}
	.st2{fill:none;stroke:#EE2737;stroke-width:1.5;stroke-linecap:round;stroke-miterlimit:10;}
</style>
<g>
	<g>
		<path class="st0" d="M127.8,83.8c-3.2,2.1-7.3,3.1-12.1,3.1c-4.3,0-7.9-0.8-11.1-2.5c-3.1-1.7-5.5-4.1-7.2-7.3
			c-1.7-3.2-2.5-7-2.5-11.5s0.8-8.2,2.5-11.4c1.7-3.2,4.1-5.6,7.1-7.3s6.8-2.5,11-2.5c4.7,0,8.7,1,12,3c3.3,2,5.4,5,6.3,9l-11.1,4.4
			c-0.5-2.5-1.2-4.3-2.3-5.2c-1-0.9-2.6-1.4-4.6-1.4c-2.5,0-4.5,1-5.9,2.9c-1.4,1.9-2,4.8-2,8.6c0,7.7,2.6,11.5,7.8,11.5
			c2.1,0,3.7-0.5,4.8-1.5c1.1-1,1.8-2.6,2.2-4.7l11.4,3.1C133.2,78.5,131,81.7,127.8,83.8z"/>
		<path class="st0" d="M223.3,57.2c1.8,1.9,2.8,4.5,2.8,8v21.2h-12.7v-18c0-1.6-0.3-2.7-0.8-3.4c-0.5-0.7-1.3-1-2.3-1
			c-1.3,0-2.4,0.5-3.1,1.5c-0.7,1-1.1,2.5-1.1,4.4v16.5h-12.7v-18c0-1.6-0.3-2.7-0.8-3.4c-0.5-0.7-1.3-1-2.3-1
			c-1.3,0-2.3,0.5-3.1,1.5s-1.1,2.5-1.1,4.5v16.5h-12.7V55h11.4l0.3,6.5c1-2.3,2.4-4.1,4.2-5.3c1.8-1.2,4-1.8,6.5-1.8
			c2.4,0,4.4,0.5,6,1.6c1.7,1.1,2.8,2.7,3.5,4.7c1-2,2.3-3.6,4.1-4.7c1.8-1.1,3.9-1.6,6.3-1.6C219,54.4,221.5,55.3,223.3,57.2z"/>
		<path class="st0" d="M282,57.2c1.8,1.9,2.8,4.5,2.8,8v21.2h-12.7v-18c0-1.6-0.3-2.7-0.8-3.4c-0.5-0.7-1.3-1-2.3-1
			c-1.3,0-2.4,0.5-3.1,1.5c-0.7,1-1.1,2.5-1.1,4.4v16.5h-12.7v-18c0-1.6-0.3-2.7-0.8-3.4c-0.5-0.7-1.3-1-2.3-1
			c-1.3,0-2.3,0.5-3.1,1.5s-1.1,2.5-1.1,4.5v16.5h-12.7V55h11.4l0.3,6.5c1-2.3,2.4-4.1,4.2-5.3c1.8-1.2,4-1.8,6.5-1.8
			c2.4,0,4.4,0.5,6,1.6c1.7,1.1,2.8,2.7,3.5,4.7c1-2,2.3-3.6,4.1-4.7c1.8-1.1,3.9-1.6,6.3-1.6C277.7,54.4,280.2,55.3,282,57.2z"/>
		<path class="st0" d="M353.7,57.2c1.8,1.9,2.7,4.5,2.7,8v21.2h-12.7V68.5c0-1.7-0.3-2.9-0.8-3.6c-0.5-0.7-1.3-1.1-2.4-1.1
			c-1.3,0-2.4,0.5-3.1,1.5c-0.8,1-1.1,2.5-1.1,4.5v16.5h-12.7V55H335l0.3,6.5c0.9-2.3,2.3-4.1,4.1-5.3c1.8-1.2,4.1-1.8,6.6-1.8
			C349.3,54.4,351.8,55.3,353.7,57.2z"/>
		<path class="st0" d="M405.1,83.8c-3.2,2.1-7.3,3.1-12.1,3.1c-4.3,0-7.9-0.8-11.1-2.5c-3.1-1.7-5.5-4.1-7.2-7.3
			c-1.7-3.2-2.5-7-2.5-11.5s0.8-8.2,2.5-11.4c1.7-3.2,4.1-5.6,7.1-7.3c3.1-1.7,6.8-2.5,11-2.5c4.7,0,8.7,1,12,3c3.3,2,5.4,5,6.3,9
			l-11.1,4.4c-0.5-2.5-1.2-4.3-2.3-5.2c-1-0.9-2.6-1.4-4.6-1.4c-2.5,0-4.5,1-5.9,2.9c-1.4,1.9-2,4.8-2,8.6c0,7.7,2.6,11.5,7.8,11.5
			c2.1,0,3.7-0.5,4.8-1.5c1.1-1,1.8-2.6,2.2-4.7l11.4,3.1C410.5,78.5,408.3,81.7,405.1,83.8z"/>
		<path class="st0" d="M446.4,79.4c-1.5,0-2.2-0.8-2.2-2.5v-10c0-8.3-5.2-12.5-15.7-12.5c-4.6,0-8.2,0.9-10.8,2.8
			c-2.6,1.8-4.1,4.4-4.5,7.8l10.4,2.2c0.2-1.6,0.6-2.7,1.4-3.4c0.8-0.6,1.8-1,3.1-1c1.1,0,2,0.3,2.6,1c0.6,0.7,0.9,1.6,0.9,2.8v1.2
			l-6.6,1.4c-4.4,0.9-7.5,2.1-9.4,3.8c-1.9,1.6-2.8,3.8-2.8,6.4c0,2.5,0.8,4.4,2.5,5.7c1.6,1.3,4.1,2,7.2,2c2.8,0,5.1-0.4,7-1.3
			c1.9-0.9,3.2-2.1,4.2-3.7c0.5,1.7,1.5,2.9,3.1,3.8c1.6,0.9,3.5,1.3,5.9,1.3c1.6,0,3.1-0.4,4.4-1.1l1-6.7
			C447.7,79.3,447.1,79.4,446.4,79.4z M432.2,75.9c0,1.3-0.5,2.3-1.4,3.1c-0.9,0.7-1.9,1.1-3.1,1.1c-0.9,0-1.6-0.2-2.2-0.7
			c-0.6-0.5-0.9-1.2-0.9-2.1c0-1.8,1.2-3.1,3.6-3.7l4-1V75.9z"/>
		<path class="st0" d="M483.8,55v31.3h-11.4l-0.3-6.2c-1.9,4.6-5.5,6.8-10.7,6.8c-6.9,0-10.4-3.6-10.4-10.9V55h12.7v17.9
			c0,1.7,0.3,2.8,0.8,3.5c0.5,0.7,1.3,1,2.5,1c1.3,0,2.4-0.5,3.1-1.5c0.8-1,1.1-2.5,1.1-4.5V55H483.8z"/>
		<path class="st0" d="M493.4,85.8c-2.6-0.8-4.8-2.1-6.5-3.9l6-6.9c1.1,1.3,2.4,2.3,4,3c1.6,0.7,3.3,1,5.3,1c1.1,0,2-0.1,2.6-0.4
			c0.7-0.3,1-0.6,1-1.1c0-0.5-0.4-0.9-1.1-1.2c-0.8-0.4-2.1-0.7-4-1.2c-4.6-0.9-7.9-2.1-9.9-3.8s-3-3.7-3-6.3c0-1.8,0.6-3.5,1.8-5.1
			c1.2-1.6,3-3,5.4-4c2.4-1,5.4-1.5,8.9-1.5c6.8,0,11.7,1.7,14.7,5.2l-5.7,6.2c-2-2.3-4.8-3.4-8.5-3.4c-1.3,0-2.3,0.2-2.9,0.5
			c-0.7,0.3-1,0.7-1,1.2c0,0.4,0.4,0.8,1.1,1.1s2,0.6,3.7,0.9c4.7,0.7,8.1,1.9,10.2,3.5c2.1,1.6,3.2,3.8,3.2,6.7
			c0,3.1-1.3,5.7-3.9,7.7c-2.6,2-6.5,3-11.7,3C499.1,87,496,86.6,493.4,85.8z"/>
		<path class="st0" d="M554.1,69.9c0-4.8-1.4-8.6-4.2-11.4c-2.8-2.8-6.8-4.2-12-4.2c-5.3,0-9.5,1.4-12.4,4.3
			c-2.9,2.8-4.4,6.9-4.4,12c0,5.2,1.5,9.2,4.5,12.1c3,2.8,7.4,4.2,13,4.2c3.8,0,7.1-0.7,9.7-2.2c2.7-1.5,4.4-3.6,5.2-6.5l-10.2-2.9
			c-0.2,0.8-0.9,4.1-5.6,3.8c-1.3-0.1-2.2-0.5-3-1.3c-1.2-1.1-1.5-3.7-1.5-5.3h20.6C553.8,72.5,554.1,71.4,554.1,69.9z M533.1,67.6
			c0.3-1.6,0.8-3,1.7-3.8c0.9-0.9,1.9-1.5,3.3-1.5c1.4,0,2.7,0.6,3.5,1.6c0.7,0.9,1.2,2.3,1.4,3.8L533.1,67.6z"/>
		<path class="st0" d="M316.6,58.7c-3-2.9-7.2-4.3-12.6-4.3c-5.4,0-9.6,1.4-12.6,4.3c-3,2.9-4.5,6.9-4.5,12s1.5,9.1,4.5,12
			c3,2.9,7.2,4.3,12.6,4.3c5.4,0,9.6-1.4,12.6-4.3c3-2.9,4.5-6.9,4.5-12S319.6,61.5,316.6,58.7z M308,77c-0.8,1.4-2.2,2.1-4.1,2.1
			s-3.3-0.7-4.1-2.1c-0.7-1.2-1.1-3.3-1.1-6.4s0.4-5.1,1.1-6.4c0.8-1.4,2.2-2.1,4.1-2.1s3.3,0.7,4.1,2.1c0.7,1.3,1.1,3.3,1.1,6.4
			C309.1,73.7,308.7,75.8,308,77z"/>
		<path class="st0" d="M165.9,58.7c-3-2.9-7.2-4.3-12.6-4.3c-5.4,0-9.6,1.4-12.6,4.3c-3,2.9-4.5,6.9-4.5,12s1.5,9.1,4.5,12
			c3,2.9,7.2,4.3,12.6,4.3c5.4,0,9.6-1.4,12.6-4.3c3-2.9,4.5-6.9,4.5-12S168.9,61.5,165.9,58.7z M157.3,77c-0.8,1.4-2.2,2.1-4.1,2.1
			c-1.9,0-3.3-0.7-4.1-2.1c-0.7-1.2-1.1-3.3-1.1-6.4s0.4-5.1,1.1-6.4c0.8-1.4,2.2-2.1,4.1-2.1c1.9,0,3.3,0.7,4.1,2.1
			c0.7,1.3,1.1,3.3,1.1,6.4C158.4,73.7,158,75.8,157.3,77z"/>
	</g>
	<path class="st1" d="M61.4,57.1l25-10.6c0,0-21.3-8.6-42.6,5.6c-19,12.6-26.3,27.5-26.3,27.5S35.6,59.1,61.4,57.1z"/>
	<path class="st0" d="M49.2,18.3L41,43.7l-26.7-0.1l18.2,13.2c7.6-7,15.9-11.8,24.5-14.3L49.2,18.3z"/>
	<path class="st0" d="M49,62.9c-5.8,2.1-11.5,4.7-16.5,8.7l-4.8,14.8l21.6-15.7l21.6,15.7l-8.4-25.9C62.4,60.5,55.7,60.5,49,62.9z"
		/>
	<g>
		<path class="st1" d="M323.4,152.2h-4.8l-9.7-15.8l-2.4-4.6h0l0.2,4.2v16.1h-3.7v-25h4.8l9.6,15.7l2.5,4.7h0l-0.2-4.2v-16.1h3.8
			V152.2z"/>
		<path class="st1" d="M344.3,135.5c1.7,1.7,2.5,4.2,2.5,7.2c0,3.1-0.8,5.5-2.5,7.2c-1.7,1.7-4,2.6-6.9,2.6s-5.3-0.9-6.9-2.6
			c-1.7-1.7-2.5-4.2-2.5-7.2c0-3.1,0.8-5.5,2.5-7.2c1.7-1.7,4-2.6,6.9-2.6S342.6,133.8,344.3,135.5z M333.4,137.8
			c-0.9,1.1-1.4,2.8-1.4,4.9c0,2.1,0.5,3.8,1.4,4.9c0.9,1.1,2.2,1.7,4,1.7c1.7,0,3-0.6,4-1.7s1.4-2.8,1.4-4.9c0-2.1-0.5-3.8-1.4-4.9
			c-0.9-1.2-2.3-1.7-4-1.7C335.6,136.1,334.3,136.6,333.4,137.8z"/>
		<path class="st1" d="M362.9,133.3l-0.6,3.7c-0.6-0.3-1.4-0.5-2.4-0.5c-0.8,0-1.6,0.2-2.3,0.6c-0.7,0.4-1.3,1.1-1.8,1.9
			c-0.5,0.9-0.7,1.9-0.7,3.1v10H351v-18.9h3.4l0.3,3.4c1.1-2.5,3.1-3.8,6-3.8C361.7,132.9,362.4,133,362.9,133.3z"/>
		<path class="st1" d="M377.1,151c-0.6,0.5-1.3,0.9-2.2,1.2s-1.8,0.4-2.8,0.4c-1.7,0-3.1-0.4-4.2-1.3c-1-0.9-1.6-2.2-1.6-4.1v-10.8
			h-3.6v-3.2h3.6v-4.4l4.1-1.1v5.6h6.6v3.2h-6.6v10.1c0,0.9,0.2,1.6,0.7,2c0.5,0.4,1.2,0.7,2,0.7c1.2,0,2.2-0.4,3.1-1.2L377.1,151z"
			/>
		<path class="st1" d="M395.4,134.7c1.3,1.2,2,3,2,5.2v12.3h-4.1v-11c0-3.3-1.4-5-4.1-5c-1.4,0-2.6,0.5-3.6,1.5
			c-1,1-1.5,2.5-1.5,4.5v10h-4.1v-27.5h4.1v11.6c0.6-1.2,1.5-2,2.5-2.6c1-0.6,2.3-0.8,3.6-0.8C392.4,132.9,394.1,133.5,395.4,134.7z
			"/>
		<path class="st1" d="M431.4,150.8c-1.8,1.2-4,1.8-6.5,1.8c-2.4,0-4.5-0.5-6.3-1.6c-1.8-1-3.1-2.5-4.1-4.5c-1-1.9-1.4-4.2-1.4-6.9
			s0.5-4.9,1.4-6.9c1-1.9,2.3-3.4,4.1-4.5c1.8-1,3.8-1.6,6.2-1.6c2.5,0,4.6,0.5,6.3,1.6c1.7,1,2.9,2.6,3.7,4.6l-3.8,1.7
			c-0.5-1.5-1.2-2.6-2.2-3.3c-1-0.7-2.2-1-3.8-1c-2.3,0-4.2,0.8-5.6,2.5c-1.4,1.7-2.1,3.9-2.1,6.9c0,3,0.7,5.3,2,6.9
			c1.3,1.6,3.2,2.5,5.6,2.5c1.6,0,3-0.4,4.1-1.2s1.9-2,2.4-3.6l3.9,1.3C434.5,147.8,433.2,149.6,431.4,150.8z"/>
		<path class="st1" d="M456.7,149.4l-0.3,2.7c-0.7,0.3-1.5,0.5-2.3,0.5c-1.1,0-2-0.2-2.6-0.6c-0.6-0.4-1.1-1.1-1.3-2.2
			c-0.6,0.9-1.4,1.6-2.6,2.1c-1.1,0.5-2.4,0.7-3.8,0.7c-1.8,0-3.3-0.4-4.5-1.3c-1.1-0.9-1.7-2.1-1.7-3.7c0-1.5,0.6-2.7,1.9-3.8
			c1.2-1,3.1-1.7,5.5-2.2l4.8-0.8v-1c0-1.2-0.3-2.1-1-2.7c-0.7-0.7-1.6-1-2.8-1c-2.5,0-4.1,1.1-4.9,3.4l-3.1-1.7
			c0.5-1.5,1.4-2.7,2.8-3.6c1.4-0.9,3.1-1.3,5.2-1.3c2.5,0,4.4,0.6,5.8,1.7c1.4,1.1,2.2,2.8,2.2,5v8.6c0,0.5,0.1,0.8,0.3,1.1
			c0.2,0.2,0.6,0.3,1.1,0.3C455.9,149.6,456.3,149.5,456.7,149.4z M448.3,148.5c1-0.7,1.6-1.5,1.6-2.6v-2.3l-4.1,0.8
			c-1.3,0.3-2.3,0.6-2.9,1.1c-0.6,0.5-0.9,1.1-0.9,1.8c0,0.7,0.2,1.2,0.7,1.6c0.5,0.4,1.2,0.5,2.1,0.5
			C446.1,149.5,447.3,149.2,448.3,148.5z"/>
		<path class="st1" d="M471.4,133.3l-0.6,3.7c-0.6-0.3-1.4-0.5-2.4-0.5c-0.8,0-1.6,0.2-2.3,0.6s-1.3,1.1-1.8,1.9
			c-0.5,0.9-0.7,1.9-0.7,3.1v10h-4.1v-18.9h3.4l0.3,3.4c1.1-2.5,3.1-3.8,6-3.8C470.2,132.9,470.9,133,471.4,133.3z"/>
		<path class="st1" d="M489.1,135.5c1.7,1.7,2.5,4.2,2.5,7.2c0,3.1-0.8,5.5-2.5,7.2c-1.7,1.7-4,2.6-6.9,2.6s-5.3-0.9-6.9-2.6
			c-1.7-1.7-2.5-4.2-2.5-7.2c0-3.1,0.8-5.5,2.5-7.2c1.7-1.7,4-2.6,6.9-2.6S487.4,133.8,489.1,135.5z M478.2,137.8
			c-0.9,1.1-1.4,2.8-1.4,4.9c0,2.1,0.5,3.8,1.4,4.9c0.9,1.1,2.2,1.7,4,1.7c1.7,0,3-0.6,4-1.7s1.4-2.8,1.4-4.9c0-2.1-0.5-3.8-1.4-4.9
			c-0.9-1.2-2.3-1.7-4-1.7C480.4,136.1,479.1,136.6,478.2,137.8z"/>
		<path class="st1" d="M499.8,146.7c0,0.9,0.1,1.6,0.4,2c0.3,0.4,0.8,0.5,1.6,0.5c0.5,0,0.9,0,1.2-0.1s0.8-0.2,1.3-0.4l-0.5,3.3
			c-0.9,0.4-1.9,0.6-3.1,0.6c-1.7,0-2.9-0.4-3.7-1.3c-0.8-0.9-1.2-2.2-1.2-4.1v-22.5h4.1V146.7z"/>
		<path class="st1" d="M506.8,129.4c-0.5-0.4-0.7-1.1-0.7-1.9s0.2-1.4,0.7-1.9c0.5-0.4,1.1-0.6,2-0.6c0.9,0,1.5,0.2,2,0.6
			c0.5,0.4,0.7,1,0.7,1.9s-0.2,1.4-0.7,1.9c-0.5,0.4-1.1,0.7-2,0.7C507.9,130.1,507.2,129.9,506.8,129.4z M510.8,152.2h-4.1v-18.9
			h4.1V152.2z"/>
		<path class="st1" d="M531.5,134.7c1.3,1.2,2,3,2,5.2v12.3h-4.1v-11c0-3.3-1.4-5-4.1-5c-1.4,0-2.6,0.5-3.6,1.5
			c-1,1-1.5,2.5-1.5,4.5v10h-4.1v-18.9h3.6l0.2,3.1c0.6-1.2,1.5-2.1,2.6-2.7s2.4-0.9,3.8-0.9C528.4,132.9,530.1,133.5,531.5,134.7z"
			/>
		<path class="st1" d="M556.4,149.4l-0.3,2.7c-0.7,0.3-1.5,0.5-2.3,0.5c-1.1,0-2-0.2-2.6-0.6c-0.6-0.4-1.1-1.1-1.3-2.2
			c-0.6,0.9-1.4,1.6-2.6,2.1c-1.1,0.5-2.4,0.7-3.8,0.7c-1.8,0-3.3-0.4-4.5-1.3c-1.1-0.9-1.7-2.1-1.7-3.7c0-1.5,0.6-2.7,1.9-3.8
			c1.2-1,3.1-1.7,5.5-2.2l4.8-0.8v-1c0-1.2-0.3-2.1-1-2.7c-0.7-0.7-1.6-1-2.8-1c-2.5,0-4.1,1.1-4.9,3.4l-3.1-1.7
			c0.5-1.5,1.4-2.7,2.8-3.6c1.4-0.9,3.1-1.3,5.2-1.3c2.5,0,4.4,0.6,5.8,1.7c1.4,1.1,2.2,2.8,2.2,5v8.6c0,0.5,0.1,0.8,0.3,1.1
			c0.2,0.2,0.6,0.3,1.1,0.3C555.6,149.6,556,149.5,556.4,149.4z M548,148.5c1-0.7,1.6-1.5,1.6-2.6v-2.3l-4.1,0.8
			c-1.3,0.3-2.3,0.6-2.9,1.1c-0.6,0.5-0.9,1.1-0.9,1.8c0,0.7,0.2,1.2,0.7,1.6c0.5,0.4,1.2,0.5,2.1,0.5
			C545.8,149.5,547,149.2,548,148.5z"/>
	</g>
	<line class="st2" x1="95.6" y1="108.6" x2="554.3" y2="108.6"/>
</g>
</svg>
